<?xml version="1.0" standalone="no"?>
<!DOCTYPE svg PUBLIC "-//W3C//DTD SVG 20010904//EN"
 "http://www.w3.org/TR/2001/REC-SVG-20010904/DTD/svg10.dtd">
<svg version="1.0" xmlns="http://www.w3.org/2000/svg"
 width="256.000000pt" height="256.000000pt" viewBox="0 0 256.000000 256.000000"
 preserveAspectRatio="xMidYMid meet">

<g transform="translate(0.000000,256.000000) scale(0.100000,-0.100000)"
fill="#000000" stroke="none">
<path d="M1105 2464 c-325 -54 -596 -213 -776 -454 -52 -69 -49 -67 -44 -39
l4 24 -20 -25 c-11 -14 -31 -47 -45 -74 -21 -39 -23 -51 -12 -58 10 -8 9 -9
-4 -4 -22 7 -64 -80 -48 -99 7 -8 4 -29 -8 -66 -12 -35 -21 -48 -25 -39 -4 9
-5 6 -2 -5 2 -11 -4 -63 -15 -115 -35 -169 -24 -427 24 -591 9 -29 14 -54 12
-56 -6 -6 -35 97 -50 176 -7 41 -17 65 -24 63 -7 -1 -12 7 -12 19 0 11 4 18 8
15 10 -6 9 30 -1 40 -17 17 -19 -60 -4 -149 137 -804 1044 -1245 1790 -871 70
35 189 115 183 122 -3 3 -1 11 5 18 7 8 6 14 -2 20 -8 5 -9 3 -4 -6 5 -8 4
-11 -3 -6 -6 3 27 43 78 94 177 177 290 402 336 666 24 133 15 367 -19 497
-101 390 -350 686 -698 829 -38 16 -130 43 -205 60 -153 34 -278 38 -419 14z
m385 -34 c29 -8 25 -8 -20 -3 -30 3 -102 9 -160 14 l-105 8 125 -5 c69 -2 141
-9 160 -14z m-312 3 c-10 -2 -28 -2 -40 0 -13 2 -5 4 17 4 22 1 32 -1 23 -4z
m-75 -10 c-7 -2 -21 -2 -30 0 -10 3 -4 5 12 5 17 0 24 -2 18 -5z m-73 -13
c-34 -11 -60 -11 -35 0 11 5 29 8 40 8 16 0 15 -2 -5 -8z m607 -15 c194 -61
390 -195 514 -351 243 -305 332 -702 239 -1065 -22 -85 -60 -193 -66 -187 -1
2 8 34 21 71 122 336 79 737 -113 1046 -150 243 -372 410 -657 495 -27 8 -42
15 -33 15 9 1 52 -10 95 -24z m-670 -1 c-3 -3 -12 -4 -19 -1 -8 3 -5 6 6 6 11
1 17 -2 13 -5z m185 -44 c3 -21 1 -27 -6 -20 -15 15 -34 12 -38 -7 -3 -11 -6
-4 -9 15 -4 22 -2 29 5 22 15 -15 36 -12 36 5 0 26 8 16 12 -15z m187 13 c-12
-15 -12 -16 4 -10 9 3 17 5 17 3 0 -3 3 -13 7 -23 6 -16 5 -16 -10 -4 -9 7
-23 11 -31 8 -13 -5 -13 -2 -4 18 6 14 16 25 21 25 5 0 3 -8 -4 -17z m113 -18
c-3 -18 0 -25 11 -25 8 0 18 6 20 13 3 7 6 5 6 -5 1 -12 -6 -18 -19 -18 -23 0
-35 22 -26 45 9 23 14 18 8 -10z m-454 -2 c-10 -2 -18 -9 -18 -15 0 -6 -3 -9
-6 -5 -10 10 6 27 24 26 15 -1 15 -2 0 -6z m612 -34 c0 -26 -2 -30 -15 -19 -8
6 -19 9 -25 5 -16 -10 -12 6 7 27 23 26 33 22 33 -13z m-711 -29 c11 -24 11
-24 -3 -6 -9 11 -16 24 -16 30 0 12 5 7 19 -24z m801 12 c0 -5 -7 -17 -15 -28
-14 -18 -14 -17 -4 9 12 27 19 34 19 19z m-366 -18 c18 -18 21 -40 6 -49 -6
-4 -7 1 -3 11 4 12 3 15 -6 10 -16 -10 -41 12 -34 30 7 18 18 18 37 -2z m-550
-19 c-4 -10 0 -15 11 -15 11 0 15 5 11 16 -3 8 -2 13 3 10 5 -3 11 -14 14 -25
3 -15 0 -17 -16 -13 -14 3 -18 1 -13 -6 4 -7 5 -12 2 -12 -10 0 -27 40 -21 50
9 15 15 12 9 -5z m1022 -18 c13 16 13 15 3 -9 -14 -33 -29 -37 -29 -8 0 11 -4
20 -10 20 -5 0 -10 -5 -10 -12 0 -6 -3 -9 -6 -6 -3 4 0 17 7 30 l12 23 10 -28
c8 -26 10 -27 23 -10z m-523 3 c3 -11 1 -18 -4 -14 -5 3 -9 12 -9 20 0 20 7
17 13 -6z m47 -52 c0 -46 85 -168 116 -168 7 0 34 21 60 48 25 26 45 43 42 37
-2 -5 -18 -41 -36 -79 -37 -80 -38 -84 -14 -102 16 -12 16 -13 -4 -14 -22 0
-29 -29 -11 -42 15 -9 -71 -31 -118 -30 -22 1 -41 6 -43 12 -2 5 -18 10 -35
11 -18 0 -26 3 -19 6 6 2 12 13 12 24 0 10 6 19 13 20 6 0 2 4 -11 10 -21 8
-22 11 -9 24 9 9 17 45 21 97 9 117 16 158 27 158 5 0 9 -6 9 -12z m-261 -47
c-16 -5 -33 15 -24 30 6 9 12 7 22 -7 9 -13 10 -20 2 -23z m522 18 c8 -16 8
-24 -2 -33 -9 -8 -10 -8 -6 0 4 7 -2 14 -13 17 -11 3 -20 0 -20 -6 0 -6 -3 -8
-6 -5 -8 8 14 48 26 48 5 0 14 -9 21 -21z m-701 -17 c0 -5 -10 -18 -23 -30
-17 -16 -26 -19 -34 -11 -19 19 -58 6 -62 -21 -3 -26 -65 -93 -88 -96 -30 -5
-21 19 27 70 29 30 70 64 93 75 43 21 87 28 87 13z m144 -8 c3 -8 2 -12 -4 -9
-6 3 -10 10 -10 16 0 14 7 11 14 -7z m724 -1 c-4 -22 -22 -20 -26 1 -2 10 3
16 13 16 10 0 15 -7 13 -17z m-653 -63 c20 -28 46 -55 58 -62 18 -9 25 -6 49
23 31 37 39 28 9 -10 -10 -14 -17 -30 -15 -36 3 -6 -7 -17 -22 -24 -29 -13
-43 -3 -44 28 0 7 -13 30 -29 50 -30 38 -55 81 -47 81 2 0 21 -23 41 -50z
m590 -26 c-37 -48 -84 -141 -77 -149 4 -3 -1 -3 -11 1 -32 12 -18 64 30 112
40 39 44 47 19 43 -5 -1 -3 5 4 14 7 9 19 14 26 11 7 -3 16 -1 20 5 3 6 8 8
11 5 3 -3 -7 -22 -22 -42z m-727 18 c3 -9 -2 -13 -14 -10 -9 1 -19 9 -22 16
-3 9 2 13 14 10 9 -1 19 -9 22 -16z m-298 -22 c-7 -13 -21 -20 -41 -20 l-31 0
23 20 c13 10 32 19 42 20 15 0 16 -3 7 -20z m369 -80 c5 0 12 6 14 13 3 6 5
-6 4 -28 -2 -37 -11 -54 -29 -55 -5 0 -7 3 -6 8 1 4 -12 36 -30 72 l-32 65 35
-37 c19 -21 39 -38 44 -38z m-387 8 c-8 -8 -8 -15 -1 -24 8 -10 0 -20 -37 -41
-27 -15 -73 -50 -103 -78 l-55 -50 61 75 c65 80 99 114 123 123 23 8 25 8 12
-5z m99 -51 c-32 -31 -33 -31 -26 -7 4 14 8 25 9 26 0 1 10 6 21 12 33 18 31
3 -4 -31z m457 6 c-10 -2 -28 -2 -40 0 -13 2 -5 4 17 4 22 1 32 -1 23 -4z
m-147 -43 c5 -35 2 -45 -12 -48 -15 -3 -22 19 -13 46 4 14 23 16 25 2z m545
-23 c1 -30 2 -29 -19 -21 -9 3 -12 14 -9 30 6 32 27 25 28 -9z m-403 6 c-7 -2
-19 -2 -25 0 -7 3 -2 5 12 5 14 0 19 -2 13 -5z m632 -44 c-16 -12 -21 -18 -10
-14 41 15 122 17 146 4 13 -7 27 -12 32 -11 4 1 12 -9 19 -22 9 -21 6 -32 -16
-70 -27 -46 -44 -62 -32 -29 6 15 4 15 -16 -2 -24 -21 -64 -45 -73 -45 -3 0 2
14 10 31 29 55 3 74 -58 43 -39 -20 -128 -90 -129 -101 0 -4 -12 -21 -25 -38
-14 -16 -22 -24 -18 -17 3 6 3 12 0 12 -12 0 -55 -106 -55 -138 0 -72 37 -89
115 -53 41 19 123 96 113 106 -3 3 -17 1 -32 -5 -15 -5 -35 -10 -44 -10 -15 0
-15 2 -2 10 13 8 12 10 -4 10 -12 0 -16 5 -12 15 3 10 -1 15 -12 16 -14 0 -14
2 -2 6 8 3 34 14 57 24 48 22 183 54 258 63 48 5 48 5 18 -7 -49 -19 -49 -26
-1 -20 l43 5 -29 -20 -29 -20 24 -4 c18 -3 11 -8 -32 -21 -31 -9 -61 -22 -66
-29 -5 -7 -33 -68 -63 -136 -54 -124 -78 -160 -41 -61 24 62 19 56 -48 -59
-50 -85 -70 -112 -57 -77 4 11 9 42 12 69 3 27 9 57 15 67 13 26 4 24 -36 -7
-20 -15 -39 -23 -46 -18 -8 4 -9 3 -5 -4 4 -7 5 -12 2 -12 -2 0 -13 -3 -23 -6
-15 -5 -15 -4 -3 5 11 8 1 9 -37 4 -44 -5 -58 -2 -96 20 -55 33 -70 65 -63
145 4 61 23 100 102 222 40 61 128 140 190 170 70 34 101 39 59 9z m-425 -59
c4 0 11 6 14 13 3 6 4 -6 1 -28 -2 -22 -7 -86 -11 -142 l-6 -103 28 0 c23 0
26 -2 14 -10 -13 -8 -12 -10 3 -10 26 0 20 -19 -10 -31 -20 -7 -24 -12 -14
-18 10 -6 9 -10 -3 -14 -13 -5 -16 -24 -17 -94 l-1 -88 -13 50 -13 50 -1 -95
-2 -95 -20 39 c-10 22 -23 60 -28 85 -9 45 -9 45 -11 11 l-2 -35 -8 30 c-4 17
-8 49 -9 73 -1 33 -5 42 -18 42 -32 0 -65 -12 -54 -19 6 -4 -11 -13 -39 -20
-45 -12 -53 -18 -86 -72 -38 -64 -49 -74 -33 -33 5 15 7 29 4 32 -3 3 -5 1 -5
-5 0 -14 -76 -94 -83 -87 -3 3 6 31 19 62 l25 57 -26 -30 -26 -30 21 35 c26
46 25 53 -7 46 l-28 -6 24 14 c18 10 20 15 10 19 -12 5 -12 7 1 16 13 9 12 11
-5 11 -11 1 3 10 31 21 50 20 92 67 79 89 -4 6 -1 9 7 8 7 -2 12 5 11 15 0 10
1 16 5 13 3 -3 36 45 74 107 83 133 105 159 130 151 10 -3 27 3 40 16 l23 21
3 -30 c2 -17 7 -31 12 -31z m-395 -30 c17 -11 26 -20 21 -20 -6 0 -2 -6 9 -14
14 -10 17 -21 12 -52 -6 -38 -58 -124 -68 -114 -7 6 -94 -70 -94 -81 0 -4 -4
-11 -9 -16 -5 -5 -6 -2 -1 6 5 9 3 12 -6 9 -8 -3 -13 -10 -12 -16 1 -5 -11
-15 -27 -22 -36 -15 -37 -24 -5 -66 15 -19 20 -34 14 -36 -7 -2 -4 -10 7 -18
16 -13 17 -13 9 0 -8 13 -7 13 8 1 19 -15 23 -26 6 -15 -7 4 -10 1 -7 -7 3 -8
10 -14 16 -14 6 0 17 -7 24 -15 11 -12 11 -12 -4 -1 -10 7 -18 10 -18 7 0 -10
84 -128 134 -191 l41 -50 -50 39 c-28 22 -70 58 -95 81 -73 67 -88 73 -47 20
l39 -50 -51 55 c-27 30 -55 54 -60 53 -6 -2 -8 4 -5 12 4 9 0 15 -9 15 -19 0
-49 39 -40 53 3 6 1 7 -4 4 -6 -4 -16 0 -23 8 -7 8 -9 15 -4 15 5 0 0 7 -10
15 -22 17 -50 20 -41 5 3 -5 1 -18 -5 -27 -11 -17 -11 -17 -6 0 7 22 -3 22
-19 0 -18 -25 -55 -24 -57 1 -4 52 -3 72 6 84 5 7 4 12 -2 12 -7 0 -7 11 1 35
6 19 15 35 20 35 5 0 6 7 3 16 -4 9 -2 13 5 8 8 -4 9 1 4 16 -4 13 -3 20 2 17
5 -3 9 2 9 11 0 9 4 27 8 40 8 23 8 23 -31 7 l-38 -15 25 20 c32 25 28 25 -58
-4 -40 -14 -72 -23 -72 -21 0 2 29 22 65 44 68 43 80 56 43 46 -53 -14 42 30
132 62 82 28 108 33 190 33 78 0 100 -4 125 -20z m-858 -212 c-3 -8 -6 -5 -6
6 -1 11 2 17 5 13 3 -3 4 -12 1 -19z m-10 -60 c-3 -7 -5 -2 -5 12 0 14 2 19 5
13 2 -7 2 -19 0 -25z m2153 -104 c-13 -66 -22 -77 -39 -46 -9 15 -23 4 -102
-81 -128 -137 -150 -141 -35 -6 53 63 96 117 96 120 0 3 -10 10 -22 16 -19 8
-16 12 43 45 35 20 66 32 68 27 1 -6 -2 -39 -9 -75z m-2163 24 c-2 -13 -4 -5
-4 17 -1 22 1 32 4 23 2 -10 2 -28 0 -40z m-10 -150 c-2 -24 -4 -7 -4 37 0 44
2 63 4 43 2 -21 2 -57 0 -80z m1123 -57 c6 -22 7 -46 4 -55 -3 -9 -1 -16 4
-16 6 0 12 -10 14 -22 2 -15 9 -21 18 -19 8 3 44 5 80 6 36 0 71 4 78 9 8 5
10 2 6 -8 -3 -9 3 -19 18 -26 13 -7 46 -33 73 -59 28 -26 61 -52 75 -58 28
-12 85 -11 115 2 20 8 20 8 0 -14 -14 -17 -28 -22 -55 -20 -22 2 -46 -4 -60
-14 -14 -10 -26 -13 -28 -8 -2 6 -10 7 -18 4 -10 -4 -11 -9 -5 -17 14 -16 0
-60 -20 -64 -9 -1 -24 7 -34 18 -16 18 -17 24 -6 41 15 26 -1 49 -34 49 -13 0
-33 8 -46 19 l-23 18 21 41 20 41 -28 -20 c-26 -18 -49 -48 -49 -63 0 -3 10
-15 23 -27 12 -12 16 -18 8 -14 -8 4 -17 2 -22 -6 -6 -10 -9 -11 -9 -1 0 6 -7
12 -15 12 -8 0 -15 -7 -15 -15 0 -18 -16 -20 -23 -2 -3 7 -6 4 -6 -6 -1 -11
-6 -15 -12 -11 -15 9 -5 69 18 103 9 14 16 34 14 44 -1 12 9 22 31 32 l33 14
-30 1 c-49 0 -130 -44 -159 -86 -17 -25 -26 -32 -26 -21 0 15 -4 14 -37 -7
-21 -13 -58 -27 -83 -30 l-45 -6 46 15 c26 8 69 30 95 48 45 31 49 37 51 78 9
165 21 199 43 120z m-1113 -53 c-2 -13 -4 -3 -4 22 0 25 2 35 4 23 2 -13 2
-33 0 -45z m10 -70 c-3 -7 -5 -2 -5 12 0 14 2 19 5 13 2 -7 2 -19 0 -25z m598
-8 c21 -41 20 -70 -5 -70 -17 0 -20 7 -20 50 0 28 2 50 5 50 2 0 11 -13 20
-30z m-588 -42 c-3 -7 -5 -2 -5 12 0 14 2 19 5 13 2 -7 2 -19 0 -25z m1132
-15 c-5 -21 -9 -69 -9 -108 0 -73 -12 -111 -24 -80 -3 9 -4 21 0 26 3 5 1 17
-5 26 -8 15 -11 12 -23 -17 l-15 -35 -12 24 c-9 17 -10 26 -2 34 6 6 11 21 11
33 0 24 20 45 21 22 0 -7 6 6 14 30 11 36 40 82 50 82 2 0 -1 -17 -6 -37z
m480 -33 c0 -10 -3 -8 -9 5 -12 27 -12 43 0 25 5 -8 9 -22 9 -30z m111 9 c10
-18 9 -20 -7 -17 -10 2 -19 11 -21 21 -5 24 15 21 28 -4z m230 -31 c0 -4 -7
-5 -15 -2 -8 4 -15 16 -15 28 1 21 1 21 15 2 8 -11 15 -23 15 -28z m-1370 22
c0 -5 7 -10 15 -10 9 0 12 -6 9 -15 -4 -8 -11 -12 -16 -9 -6 4 -14 1 -18 -5
-4 -7 -7 1 -8 18 0 17 4 31 9 31 5 0 9 -4 9 -10z m238 -22 c19 -19 14 -33 -6
-15 -49 45 -140 -3 -128 -66 4 -23 3 -28 -4 -17 -17 26 -11 51 19 81 22 22 39
29 68 29 22 0 44 -5 51 -12z m-388 -65 c0 -15 -26 -17 -35 -3 -3 5 -3 21 1 36
l7 27 13 -24 c7 -13 13 -30 14 -36z m1517 41 c-3 -3 -12 -4 -19 -1 -8 3 -5 6
6 6 11 1 17 -2 13 -5z m-957 -34 c0 -33 -42 -86 -60 -75 -19 11 -10 39 22 72
18 18 33 33 35 33 2 0 3 -14 3 -30z m-106 7 c-5 -14 -65 -40 -73 -31 -8 8 41
44 61 44 10 0 15 -5 12 -13z m840 -24 c-6 -2 -9 -16 -6 -31 3 -15 2 -25 -1
-22 -3 3 -7 16 -9 30 -1 14 -7 28 -12 31 -5 4 -5 12 -2 18 5 8 12 6 24 -6 10
-10 13 -18 6 -20z m-934 24 c0 -2 -10 -12 -22 -23 l-23 -19 19 23 c18 21 26
27 26 19z m665 -37 c-4 -13 -2 -20 5 -18 23 5 22 -22 0 -30 -17 -6 -23 -18
-25 -50 -2 -27 2 -47 11 -56 8 -8 14 -17 14 -20 0 -11 -56 -6 -68 6 -16 16
-16 52 0 42 8 -5 9 2 5 24 -5 25 -3 32 13 37 15 5 20 15 20 39 0 33 6 46 22
46 5 0 6 -9 3 -20z m409 4 c7 -18 0 -34 -15 -34 -5 0 -9 11 -9 25 0 28 15 34
24 9z m-1838 -81 c-4 -4 -36 73 -35 85 0 4 9 -13 20 -37 11 -24 18 -46 15 -48z
m34 52 c0 -5 -5 -3 -10 5 -5 8 -10 20 -10 25 0 6 5 3 10 -5 5 -8 10 -19 10
-25z m820 9 c0 -14 -4 -23 -10 -19 -5 3 -10 15 -10 26 0 10 5 19 10 19 6 0 10
-12 10 -26z m-636 1 c3 -8 1 -15 -4 -15 -6 0 -10 7 -10 15 0 8 2 15 4 15 2 0
6 -7 10 -15z m557 -25 c10 6 19 8 19 4 0 -11 -41 -64 -51 -64 -11 0 -12 61 -1
87 6 15 8 13 10 -9 3 -24 6 -27 23 -18z m1239 20 c0 -5 -4 -10 -10 -10 -5 0
-10 5 -10 10 0 6 5 10 10 10 6 0 10 -4 10 -10z m-773 -32 c-3 -8 -6 -5 -6 6
-1 11 2 17 5 13 3 -3 4 -12 1 -19z m-1173 -45 c14 -29 24 -53 21 -53 -5 0 -55
95 -55 106 0 12 6 2 34 -53z m936 43 c0 -8 -4 -18 -10 -21 -5 -3 -10 3 -10 14
0 12 5 21 10 21 6 0 10 -6 10 -14z m1106 -65 c-15 -28 -28 -51 -31 -51 -3 0 7
25 22 55 15 30 29 53 31 51 2 -2 -8 -27 -22 -55z m-536 29 c9 -17 8 -20 -9
-20 -14 0 -18 5 -14 20 3 11 7 20 9 20 2 0 8 -9 14 -20z m-883 -22 c-3 -7 -5
-2 -5 12 0 14 2 19 5 13 2 -7 2 -19 0 -25z m-227 2 c0 -5 -4 -10 -10 -10 -5 0
-10 5 -10 10 0 6 5 10 10 10 6 0 10 -4 10 -10z m560 -16 c0 -8 -4 -12 -10 -9
-5 3 -10 10 -10 16 0 5 5 9 10 9 6 0 10 -7 10 -16z m37 4 c10 -13 46 -104 49
-124 1 -6 16 -39 33 -73 35 -71 37 -81 17 -81 -8 0 -17 13 -21 30 -4 16 -15
46 -25 67 -10 21 -16 41 -14 44 2 4 -3 12 -11 19 -8 7 -15 19 -15 27 0 7 -9
31 -20 53 -11 22 -20 42 -20 45 0 10 17 5 27 -7z m-227 -8 c0 -5 -5 -10 -11
-10 -5 0 -7 5 -4 10 3 6 8 10 11 10 2 0 4 -4 4 -10z m505 -30 c3 -5 1 -10 -4
-10 -6 0 -11 5 -11 10 0 6 2 10 4 10 3 0 8 -4 11 -10z m-1210 -46 c9 -15 12
-23 6 -20 -11 7 -35 46 -28 46 3 0 12 -12 22 -26z m525 5 c0 -5 -4 -9 -8 -9
-5 0 -9 7 -9 15 0 8 4 12 9 9 4 -3 8 -9 8 -15z m1410 1 c-6 -11 -13 -20 -16
-20 -2 0 0 9 6 20 6 11 13 20 16 20 2 0 0 -9 -6 -20z m-630 -44 c0 -7 12 -23
26 -37 14 -13 30 -33 35 -44 5 -11 16 -30 25 -42 14 -20 14 -23 1 -23 -8 0
-22 15 -31 33 -10 17 -30 50 -46 72 -29 39 -40 72 -20 60 6 -3 10 -12 10 -19z
m570 -46 c-11 -16 -26 -33 -32 -36 -7 -4 1 9 16 29 34 44 46 50 16 7z m-1694
0 c0 -11 -6 -22 -13 -24 -16 -6 -16 -1 -3 25 13 24 16 24 16 -1z m-46 -85 c50
-54 53 -59 16 -25 -26 25 -62 63 -79 85 -35 46 -25 36 63 -60z m347 73 c-3 -8
-6 -5 -6 6 -1 11 2 17 5 13 3 -3 4 -12 1 -19z m-273 -3 c-4 -8 -8 -15 -10 -15
-2 0 -4 7 -4 15 0 8 4 15 10 15 5 0 7 -7 4 -15z m1530 -3 c3 -5 -5 -8 -17 -8
-13 1 -21 -4 -19 -12 1 -8 -2 -11 -8 -7 -8 5 -7 11 1 21 13 15 35 19 43 6z
m-1514 -17 c0 -2 -9 -9 -20 -15 -12 -6 -20 -7 -20 -1 0 5 8 12 18 14 9 3 18 5
20 6 1 0 2 -1 2 -4z m-164 -37 l29 -33 -32 29 c-31 28 -38 36 -30 36 2 0 16
-15 33 -32z m411 0 c-3 -7 -5 -2 -5 12 0 14 2 19 5 13 2 -7 2 -19 0 -25z m948
-4 c9 -15 12 -23 6 -20 -11 7 -35 46 -28 46 3 0 12 -12 22 -26z m415 23 c0 -1
-28 -29 -62 -62 l-63 -60 60 63 c55 58 65 67 65 59z m-1545 -17 c4 -6 -1 -7
-11 -3 -13 5 -16 3 -11 -10 4 -11 2 -14 -9 -10 -7 3 -14 -1 -14 -8 0 -7 -3 -9
-7 -6 -7 7 25 47 38 47 4 0 11 -4 14 -10z m877 -18 c84 -6 89 -7 48 -13 -25
-4 -68 -8 -96 -8 -46 -1 -52 2 -63 26 -11 23 -10 25 3 14 8 -7 56 -15 108 -19z
m568 14 c-7 -7 -13 -7 -20 0 -6 6 -3 10 10 10 13 0 16 -4 10 -10z m-764 -29
c1 -37 -12 -41 -66 -21 -25 9 -65 20 -90 24 l-45 7 50 2 c28 1 57 6 65 11 8 6
31 9 50 8 31 -3 35 -6 36 -31z m712 -5 c7 7 12 9 12 6 0 -3 -6 -11 -13 -17
-11 -8 -18 -6 -33 12 -19 22 -19 22 2 5 16 -14 23 -15 32 -6z m-68 -27 c14
-19 14 -19 -2 -6 -10 7 -18 18 -18 24 0 6 1 8 3 6 1 -2 9 -13 17 -24z m-570 6
c0 -20 -20 -61 -29 -61 -12 0 -11 41 2 58 11 14 27 16 27 3z m50 2 c0 -5 -8
-17 -17 -28 -14 -18 -15 -18 -9 -2 3 10 6 23 6 28 0 5 5 9 10 9 6 0 10 -3 10
-7z m-699 -20 c12 -16 12 -17 -2 -6 -9 7 -20 9 -24 5 -5 -4 -5 -1 -1 6 9 16
11 15 27 -5z m1179 -13 c6 -11 8 -20 6 -20 -3 0 -10 9 -16 20 -6 11 -8 20 -6
20 3 0 10 -9 16 -20z m-1345 -10 c10 -11 16 -20 13 -20 -3 0 -13 9 -23 20 -10
11 -16 20 -13 20 3 0 13 -9 23 -20z m128 -5 c-3 -9 -8 -14 -10 -11 -3 3 -2 9
2 15 9 16 15 13 8 -4z m42 -15 c-3 -5 -14 -10 -23 -9 -14 0 -13 2 3 9 27 11
27 11 20 0z m1295 6 c0 -2 -8 -10 -17 -17 -16 -13 -17 -12 -4 4 13 16 21 21
21 13z m-1419 -23 c13 -16 12 -17 -3 -4 -17 13 -22 21 -14 21 2 0 10 -8 17
-17z m216 -18 c-8 -20 -36 -30 -48 -18 -6 6 -2 9 13 9 18 -1 23 4 22 22 0 15
3 19 9 13 5 -5 7 -17 4 -26z m970 13 c2 -17 0 -19 -7 -8 -5 8 -6 18 -4 22 8
12 10 10 11 -14z m42 -16 c-1 -15 -2 -15 -6 1 -2 9 -9 14 -15 11 -7 -4 -8 -2
-4 5 10 15 26 4 25 -17z m151 14 c0 -2 -8 -10 -17 -17 -16 -13 -17 -12 -4 4
13 16 21 21 21 13z m-1118 -28 c-7 -7 -12 -8 -12 -2 0 14 12 26 19 19 2 -3 -1
-11 -7 -17z m828 2 c-8 -5 -19 -10 -25 -10 -5 0 -3 5 5 10 8 5 20 10 25 10 6
0 3 -5 -5 -10z m-800 -43 c0 -5 -4 -5 -10 -2 -5 3 -10 14 -10 23 0 15 2 15 10
2 5 -8 10 -19 10 -23z m810 19 c0 -2 -7 -6 -15 -10 -8 -3 -15 -1 -15 4 0 6 7
10 15 10 8 0 15 -2 15 -4z m-960 -32 c0 -2 -9 0 -20 6 -11 6 -20 13 -20 16 0
2 9 0 20 -6 11 -6 20 -13 20 -16z m865 16 c3 -5 1 -10 -4 -10 -6 0 -11 5 -11
10 0 6 2 10 4 10 3 0 8 -4 11 -10z m-15 -44 c0 -6 -7 -1 -15 10 -8 10 -15 23
-15 28 0 6 7 1 15 -10 8 -10 15 -23 15 -28z m-603 12 c-3 -8 -6 -5 -6 6 -1 11
2 17 5 13 3 -3 4 -12 1 -19z m143 7 c7 -9 10 -18 6 -22 -3 -3 -6 -1 -6 6 0 6
-10 16 -22 21 -16 6 -18 9 -7 9 9 1 22 -6 29 -14z m75 -5 c3 -5 0 -7 -9 -4 -8
3 -16 -2 -19 -13 -4 -14 -5 -14 -6 5 -1 22 22 31 34 12z m206 -27 c-9 -16 -10
-14 -11 12 0 21 3 26 11 18 8 -8 8 -16 0 -30z m36 3 c-21 -21 -29 -8 -9 15 9
11 18 15 20 9 2 -5 -3 -16 -11 -24z m-84 -6 c3 -11 1 -18 -4 -14 -5 3 -9 12
-9 20 0 9 -5 12 -12 8 -7 -4 -8 -3 -4 5 10 15 22 7 29 -19z m-543 10 c8 -5 11
-10 5 -10 -5 0 -17 5 -25 10 -8 5 -10 10 -5 10 6 0 17 -5 25 -10z m267 -12
c-3 -8 -6 -5 -6 6 -1 11 2 17 5 13 3 -3 4 -12 1 -19z m190 6 c-3 -3 -12 -4
-19 -1 -8 3 -5 6 6 6 11 1 17 -2 13 -5z m56 -19 c-3 -9 -8 -14 -10 -11 -3 3
-2 9 2 15 9 16 15 13 8 -4z m-56 -11 c-3 -3 -12 -4 -19 -1 -8 3 -5 6 6 6 11 1
17 -2 13 -5z m-184 -51 c-7 -2 -19 -2 -25 0 -7 3 -2 5 12 5 14 0 19 -2 13 -5z
m434 1 c-3 -3 -12 -4 -19 -1 -8 3 -5 6 6 6 11 1 17 -2 13 -5z m-364 -11 c-7
-2 -21 -2 -30 0 -10 3 -4 5 12 5 17 0 24 -2 18 -5z m310 0 c-7 -2 -21 -2 -30
0 -10 3 -4 5 12 5 17 0 24 -2 18 -5z m-120 -10 c-29 -2 -78 -2 -110 0 -32 2
-8 3 52 3 61 0 87 -1 58 -3z"/>
<path d="M1585 2321 c-3 -5 -1 -12 5 -16 5 -3 10 1 10 9 0 18 -6 21 -15 7z"/>
<path d="M1170 1976 c7 -7 14 -6 21 1 9 9 7 12 -9 10 -14 -1 -18 -5 -12 -11z"/>
<path d="M1267 1553 c-36 -57 -49 -84 -44 -90 3 -2 21 -1 41 2 l36 7 0 59 c0
33 -2 59 -5 59 -3 0 -15 -17 -28 -37z"/>
<path d="M1041 1674 c0 -11 3 -14 6 -6 3 7 2 16 -1 19 -3 4 -6 -2 -5 -13z"/>
<path d="M822 1650 c-39 -9 -33 -3 -60 -67 -12 -29 -19 -59 -15 -69 3 -10 2
-15 -3 -12 -5 4 -10 -7 -11 -23 l-2 -29 42 26 c53 33 115 91 133 126 27 52 -1
68 -84 48z"/>
<path d="M1221 1124 c0 -11 3 -14 6 -6 3 7 2 16 -1 19 -3 4 -6 -2 -5 -13z"/>
<path d="M1330 961 c-15 -29 -12 -33 10 -14 21 19 26 33 10 33 -5 0 -14 -9
-20 -19z"/>
<path d="M494 2248 l-19 -23 23 19 c21 18 27 26 19 26 -2 0 -12 -10 -23 -22z"/>
<path d="M140 1720 c0 -5 5 -10 11 -10 5 0 7 5 4 10 -3 6 -8 10 -11 10 -2 0
-4 -4 -4 -10z"/>
<path d="M125 1671 c-3 -5 -2 -12 3 -15 5 -3 9 1 9 9 0 17 -3 19 -12 6z"/>
<path d="M2069 303 c-13 -16 -12 -17 4 -4 16 13 21 21 13 21 -2 0 -10 -8 -17
-17z"/>
</g>
</svg>
